<?xml version="1.0" encoding="UTF-8" standalone="no"?>
<svg
   xmlns:dc="http://purl.org/dc/elements/1.1/"
   xmlns:cc="http://creativecommons.org/ns#"
   xmlns:rdf="http://www.w3.org/1999/02/22-rdf-syntax-ns#"
   xmlns:svg="http://www.w3.org/2000/svg"
   xmlns="http://www.w3.org/2000/svg"
   viewBox="0 0 338.67499 355.23749"
   height="355.23749"
   width="338.67499"
   xml:space="preserve"
   version="1.1"
   id="svg2"><metadata
     id="metadata8"><rdf:RDF><cc:Work
         rdf:about=""><dc:format>image/svg+xml</dc:format><dc:type
           rdf:resource="http://purl.org/dc/dcmitype/StillImage" /></cc:Work></rdf:RDF></metadata><defs
     id="defs6" /><g
     transform="matrix(1.25,0,0,-1.25,0,355.2375)"
     id="g10"><g
       transform="scale(0.1,0.1)"
       id="g12"><path
         id="path14"
         style="fill:#000000;fill-opacity:1;fill-rule:nonzero;stroke:none"
         d="m 0,0 2709.38,0 0,2841.88 L 0,2841.88 0,0 Z" /><path
         id="path16"
         style="fill:#fcd213;fill-opacity:1;fill-rule:nonzero;stroke:none"
         d="m 63.125,90.625 2583.13,0 0,267.5 -2583.13,0 0,-267.5 z" /><path
         id="path18"
         style="fill:#fcd213;fill-opacity:1;fill-rule:nonzero;stroke:none"
         d="m 1095.63,1589.63 c -268.001,-43 -564.505,-200.01 -653.001,-481 -16.504,-57 -26.504,-119.255 -28.504,-181.755 l -350.5,-0.242 c -5.5,360.997 265,680.997 583,818.997 141.5,63 289,111.5 449.005,129 l 0,-285" /><path
         id="path20"
         style="fill:#fcd213;fill-opacity:1;fill-rule:nonzero;stroke:none"
         d="m 1614.38,1589.63 c 267.99,-43 564.5,-200.01 652.99,-481 16.51,-57 26.51,-119.255 28.51,-181.755 l 350.5,-0.242 c 5.5,360.997 -265,680.997 -583,818.997 -141.5,63 -289,111.5 -449,129 l 0,-285" /><path
         id="path22"
         style="fill:#ffffff;fill-opacity:1;fill-rule:nonzero;stroke:none"
         d="m 310.113,474.406 -4.418,0 c -9.582,-48.242 -67.07,-56.289 -111.289,-56.289 -88.437,0 -140.031,19.434 -140.031,109.219 0,84.414 48.645,110.547 140.031,110.547 36.114,0 91.387,0.672 105.391,-39.531 l 5.898,0 0,55.613 c 0,32.832 -2.215,53.605 -57.488,53.605 -31.691,0 -51.59,-6.699 -51.59,-38.195 l -126.7615,0 c 0,109.211 87.6995,108.547 178.3515,108.547 129.715,0 184.25,-14.746 184.25,-136.016 l 0,-219.765 -126.762,0 4.418,52.265 z m -128.976,56.278 c 0,-38.192 36.113,-38.192 55.281,-38.192 53.059,0 69.277,6.035 69.277,42.879 0,29.484 -28.007,32.16 -69.277,32.16 -30.957,0 -55.281,-4.687 -55.281,-36.847" /><path
         id="path24"
         style="fill:#ffffff;fill-opacity:1;fill-rule:nonzero;stroke:none"
         d="m 862.055,539.395 c 0,-52.938 -19.16,-83.086 -52.325,-100.497 -33.167,-16.757 -80.335,-20.781 -136.347,-20.781 -152.559,0 -189.406,48.242 -189.406,179.571 0,135.339 33.906,180.234 189.406,180.234 145.191,0 188.672,-36.856 188.672,-180.234 l 0,-19.434 -251.313,0 c 0,-61.641 10.317,-79.727 62.641,-79.727 39.062,0 64.121,4.024 64.121,40.868 l 124.551,0 z M 735.293,641.906 c 0,52.266 -21.371,55.606 -64.121,55.606 -44.957,0 -58.961,-9.375 -60.43,-55.606 l 124.551,0" /><path
         id="path26"
         style="fill:#ffffff;fill-opacity:1;fill-rule:nonzero;stroke:none"
         d="m 1116.16,637.219 c 0,24.785 1.47,52.265 -33.17,52.265 -38.32,0 -47.17,-27.48 -47.17,-56.289 l 0,-211.054 -126.761,0 0,351.757 123.081,0 0,-51.593 5.16,0 c 16.95,40.207 50.11,55.617 97.28,55.617 88.44,0 95.81,-65.664 95.81,-129.981 l 0,-27.48 -114.23,0 0,16.758" /><path
         id="path28"
         style="fill:#ffffff;fill-opacity:1;fill-rule:nonzero;stroke:none"
         d="m 1639.42,597.688 c 0,-144.727 -33.16,-179.571 -193.83,-179.571 -158.45,0 -193.09,38.867 -193.09,179.571 0,144.05 31.69,180.234 193.09,180.234 162.14,0 193.83,-31.496 193.83,-180.234 z m -260.16,0 c 0,-76.387 7.37,-91.125 68.54,-91.125 58.96,0 64.86,14.738 64.86,91.125 0,76.375 -5.9,91.796 -64.86,91.796 -61.17,0 -68.54,-15.421 -68.54,-91.796" /><path
         id="path30"
         style="fill:#ffffff;fill-opacity:1;fill-rule:nonzero;stroke:none"
         d="m 1691.76,422.141 126.758,0 0,502.508 -126.758,0 0,-502.508 z" /><path
         id="path32"
         style="fill:#ffffff;fill-opacity:1;fill-rule:nonzero;stroke:none"
         d="m 2006.88,422.141 -126.76,0 0,351.757 126.76,0 0,-351.757 z m 0,414.062 -126.76,0 0,88.445 126.76,0 0,-88.445" /><path
         id="path34"
         style="fill:#ffffff;fill-opacity:1;fill-rule:nonzero;stroke:none"
         d="m 2301.93,689.484 -86.23,0 0,-267.343 -126.77,0 0,267.343 -50.85,0 0,84.414 50.85,0 0,34.168 c 0,92.473 39.06,117.922 207.83,116.582 l 0,-87.761 c -7.37,2 -15.47,3.34 -23.58,3.34 -56.01,0 -57.48,-9.375 -57.48,-53.594 l 0,-12.735 86.23,0 0,-84.414" /><path
         id="path36"
         style="fill:#ffffff;fill-opacity:1;fill-rule:nonzero;stroke:none"
         d="m 2643.27,689.484 -146.67,0 0,-157.461 c 0.74,-20.773 5.17,-29.472 28.75,-29.472 33.17,0 31.69,21.433 33.17,45.554 l 0.74,18.762 100.95,0 0,-31.496 c 0,-95.808 -39.06,-117.254 -142.23,-117.254 -81.07,0 -148.14,9.383 -148.14,97.832 l 0,173.535 -47.16,0 0,84.414 47.16,0 0,74.375 126.76,0 0,-74.375 146.67,0 0,-84.414" /><path
         id="path38"
         style="fill:#ffffff;fill-opacity:1;fill-rule:nonzero;stroke:none"
         d="m 2289.87,2029.13 -213.49,-169 -529.01,428.5 0.76,-688 c -58.5,6.44 -120.52,9.03 -182.5,8.8 -61.99,0.23 -124,-2.36 -182.5,-8.8 l 0.75,688 -529.005,-428.5 -213.496,169 924.251,752.12 924.24,-752.12" /></g></g></svg>