<?xml version="1.0" encoding="UTF-8" standalone="no"?>
<!-- Created with Inkscape (http://www.inkscape.org/) -->

<svg
   xmlns:dc="http://purl.org/dc/elements/1.1/"
   xmlns:cc="http://creativecommons.org/ns#"
   xmlns:rdf="http://www.w3.org/1999/02/22-rdf-syntax-ns#"
   xmlns:svg="http://www.w3.org/2000/svg"
   xmlns="http://www.w3.org/2000/svg"
   xmlns:sodipodi="http://sodipodi.sourceforge.net/DTD/sodipodi-0.dtd"
   xmlns:inkscape="http://www.inkscape.org/namespaces/inkscape"
   width="500"
   height="95"
   id="svg4464"
   version="1.1"
   inkscape:version="0.48.4 r9939"
   sodipodi:docname="New document 13">
  <defs
     id="defs4466">
    <clipPath
       clipPathUnits="userSpaceOnUse"
       id="clipPath4387">
      <path
         inkscape:connector-curvature="0"
         d="m 0,0 841.89,0 0,595.276 L 0,595.276 0,0 z"
         id="path4389" />
    </clipPath>
  </defs>
  <sodipodi:namedview
     id="base"
     pagecolor="#ffffff"
     bordercolor="#ffffff"
     borderopacity="0.0"
     inkscape:pageopacity="0.0"
     inkscape:pageshadow="0"
     inkscape:zoom="0.35"
     inkscape:cx="350"
     inkscape:cy="520"
     inkscape:document-units="px"
     inkscape:current-layer="layer1"
     showgrid="false"
     inkscape:window-width="1366"
     inkscape:window-height="746"
     inkscape:window-x="-8"
     inkscape:window-y="-8"
     inkscape:window-maximized="1" />
  <metadata
     id="metadata4469">
    <rdf:RDF>
      <cc:Work
         rdf:about="">
        <dc:format>image/svg+xml</dc:format>
        <dc:type
           rdf:resource="http://purl.org/dc/dcmitype/StillImage" />
        <dc:title></dc:title>
      </cc:Work>
    </rdf:RDF>
  </metadata>
  <g
     inkscape:label="Layer 1"
     inkscape:groupmode="layer"
     id="layer1"
     transform="translate(0,-957.36218)">
    <g
       transform="matrix(4.6417931,0,0,-4.6274879,-184.20956,1335.7796)"
       id="g4383">
      <g
         id="g4385"
         clip-path="url(#clipPath4387)">
        <g
           id="g4391"
           transform="translate(39.685,81.7645)">
          <path
             inkscape:connector-curvature="0"
             d="m 0,0 0,-20.509 7.053,-0.009 0,14.124 c 0,0 5.129,1.265 5.129,-3.865 0,0 0.19,-3.953 -3.847,-3.858 l 0,-6.279 0.641,0 c 0,0 10.259,-1.393 10.259,10.148 0,0 0,10.248 -10.259,10.248 L 0,0 z"
             style="fill:#00529b;fill-opacity:1;fill-rule:nonzero;stroke:none"
             id="path4393" />
        </g>
        <g
           id="g4395"
           transform="translate(68.5377,81.7756)">
          <path
             inkscape:connector-curvature="0"
             d="m 0,0 -4.488,0 c 0,0 -2.315,-0.071 -2.565,-2.565 l -2.565,-17.961 8.336,0 0.463,12.832 c 0,0 -0.089,1.282 0.819,1.282 L 0,0 z"
             style="fill:#00529b;fill-opacity:1;fill-rule:nonzero;stroke:none"
             id="path4397" />
        </g>
        <g
           id="g4399"
           transform="translate(76.8729,79.1752)">
          <path
             inkscape:connector-curvature="0"
             d="m 0,0 c 0,0 -0.428,2.6 -2.565,2.6 l -4.488,0 0,-6.411 c 0,0 0.855,0.142 0.819,-1.194 l 0.161,-3.918 -1.995,-0.036 -0.095,-5.114 2.304,0 0.088,-3.844 8.336,0 L 0,0 z"
             style="fill:#00529b;fill-opacity:1;fill-rule:nonzero;stroke:none"
             id="path4401" />
        </g>
      </g>
    </g>
    <g
       id="g4403"
       transform="matrix(4.6417931,0,0,-4.6274879,190.4755,1052.3604)">
      <path
         inkscape:connector-curvature="0"
         d="m 0,0 0,20.518 8.976,0 3.847,-8.977 L 12.823,0 10.259,0 7.053,10.009 7.053,0 0,0 z"
         style="fill:#00529b;fill-opacity:1;fill-rule:nonzero;stroke:none"
         id="path4405" />
    </g>
    <g
       id="g4407"
       transform="matrix(4.6417931,0,0,-4.6274879,404.76055,1052.3604)">
      <path
         inkscape:connector-curvature="0"
         d="m 0,0 0,20.518 7.694,0 3.847,-7.695 L 11.541,0 7.088,8.976 7.088,0 0,0 z"
         style="fill:#00529b;fill-opacity:1;fill-rule:nonzero;stroke:none"
         id="path4409" />
    </g>
    <g
       id="g4411"
       transform="matrix(4.6417931,0,0,-4.6274879,315.47515,1052.3604)">
      <path
         inkscape:connector-curvature="0"
         d="m 0,0 0,20.518 -8.976,0 -3.847,-8.977 0,-11.541 2.564,0 3.206,10.009 L -7.053,0 0,0 z"
         style="fill:#00529b;fill-opacity:1;fill-rule:nonzero;stroke:none"
         id="path4413" />
    </g>
    <path
       inkscape:connector-curvature="0"
       d="m 396.1491,957.41771 -71.8131,0 0,26.70524 71.8131,0 0,-26.70524 z"
       style="fill:#00529b;fill-opacity:1;fill-rule:nonzero;stroke:none"
       id="path4415" />
    <g
       id="g4417"
       transform="matrix(4.6417931,0,0,-4.6274879,396.12405,991.53663)">
      <path
         inkscape:connector-curvature="0"
         d="m 0,0 -15.465,-0.009 0,-5.779 L 0,-5.779 0,0 z"
         style="fill:#00529b;fill-opacity:1;fill-rule:nonzero;stroke:none"
         id="path4419" />
    </g>
    <path
       inkscape:connector-curvature="0"
       d="m 396.126,1025.6546 -71.79,0 0,26.7053 71.79,0 0,-26.7053 z"
       style="fill:#00529b;fill-opacity:1;fill-rule:nonzero;stroke:none"
       id="path4421" />
    <path
       inkscape:connector-curvature="0"
       d="m 500.00001,957.36218 -35.714,0 0,94.99772 35.714,0 0,-94.99772 z"
       style="fill:#00529b;fill-opacity:1;fill-rule:nonzero;stroke:none"
       id="path4423" />
  </g>
</svg>
